<!-- icon666.com - MILLIONS OF FREE VECTOR ICONS --><svg id="Layer_1" enable-background="new 0 0 512 512" viewBox="0 0 512 512" xmlns="http://www.w3.org/2000/svg"><g clip-rule="evenodd" fill-rule="evenodd"><path d="m433.613.002h-355.222c-43.223 0-78.389 35.171-78.389 78.389v355.222c0 43.218 35.166 78.389 78.389 78.389h355.222c43.218 0 78.389-35.171 78.389-78.389v-355.222c0-43.218-35.171-78.389-78.389-78.389z" fill="#8ee26b"></path><path d="m22.987 489.018c14.195 14.196 33.793 22.989 55.406 22.989h355.215c43.227 0 78.393-35.171 78.393-78.398v-355.213c0-21.611-8.791-41.209-22.986-55.405z" fill="#47de76"></path><path d="m378.389 358.134 6.543 16.798-16.802-6.538c-3.67-1.425-7.811-.962-11.071 1.245-13.878 9.392-30.119 14.363-46.959 14.363-46.261 0-83.899-37.642-83.899-83.898 0-46.261 37.638-83.903 83.899-83.903 46.26 0 83.898 37.643 83.898 83.903 0 16.84-4.967 33.076-14.359 46.959-2.207 3.26-2.669 7.396-1.25 11.071zm-204.368-17.444c14.128 9.562 29.869 16.08 46.412 19.35-11.515-17.161-18.232-37.78-18.232-59.936 0-59.492 48.412-107.904 107.899-107.904 22.161 0 42.779 6.722 59.931 18.222-11.571-58.322-63.129-102.422-124.801-102.422-70.148 0-127.23 57.082-127.23 127.23 0 25.543 7.529 50.171 21.779 71.224 2.212 3.26 2.679 7.401 1.25 11.08l-13.958 35.869 35.869-13.958c3.68-1.434 7.821-.962 11.081 1.245zm243.157 50.959-14.217-36.567c9.859-16.609 15.038-35.482 15.038-54.978 0-24.213-8.019-46.581-21.529-64.601 0-.09 0-.184 0-.273 0-83.389-67.837-151.226-151.24-151.226-83.389 0-151.23 67.837-151.23 151.226 0 28.213 7.741 55.492 22.439 79.313l-21.618 55.577c-1.731 4.429-.67 9.472 2.698 12.831 3.358 3.373 8.401 4.429 12.83 2.703l55.582-21.623c23.822 14.699 51.101 22.439 79.299 22.439h.269c18.02 13.51 40.393 21.529 64.601 21.529 19.5 0 38.369-5.179 54.978-15.038l36.572 14.222c1.41.547 2.891.816 4.349.816 3.123 0 6.194-1.217 8.491-3.519 3.363-3.359 4.419-8.397 2.688-12.831z" fill="#fff"></path></g></svg>